<svg viewBox="0 0 24 24" xmlns="http://www.w3.org/2000/svg" width="300" height="300" version="1.1" xmlns:xlink="http://www.w3.org/1999/xlink" xmlns:svgjs="http://svgjs.dev/svgjs"><g width="100%" height="100%" transform="matrix(1,0,0,1,0,0)"><g><path d="m12.7045 21.7505c-1.2083-1.2197-1.9545-2.8979-1.9545-4.7504 0-1.5296.5088-2.9404 1.3664-4.0724-3.61146-.6124-7.38972.0526-10.6389 1.995-.45124.2698-.72751.7568-.72751 1.2825v3.7953c0 .9665.7835 1.75 1.75 1.75h10.2045z" fill="#1a3264" fill-opacity="1" data-original-color="#000000ff" stroke="none" stroke-opacity="1"/><g fill-rule="evenodd"><path d="m9.07018 6.04864c1.12362-.3498 2.30822-.94454 3.24612-1.9221.2761.4777.4337 1.03186.4337 1.62346 0 1.79493-1.4551 3.25-3.25 3.25-1.53269 0-2.81758-1.06097-3.1603-2.48854.78701-.02832 1.75252-.15835 2.73048-.46282zm.42982-5.04864c-2.62335 0-4.75 2.12665-4.75 4.75s2.12665 4.75 4.75 4.75c2.6234 0 4.75-2.12665 4.75-4.75 0-1.31009-.5314-2.49751-1.3885-3.35605-.859-.86035-2.0487-1.39395-3.3615-1.39395z" fill="#1a3264" fill-opacity="1" data-original-color="#000000ff" stroke="none" stroke-opacity="1"/><path d="m13.25 17c0 2.3472 1.9028 4.25 4.25 4.25s4.25-1.9028 4.25-4.25-1.9028-4.25-4.25-4.25-4.25 1.9028-4.25 4.25zm4.25 5.75c-3.1756 0-5.75-2.5744-5.75-5.75s2.5744-5.75 5.75-5.75 5.75 2.5744 5.75 5.75-2.5744 5.75-5.75 5.75z" fill="#1a3264" fill-opacity="1" data-original-color="#000000ff" stroke="none" stroke-opacity="1"/><path d="m14.9697 15.4697c.2929-.2929.7677-.2929 1.0606 0l2 2c.2929.2929.2929.7677 0 1.0606s-.7677.2929-1.0606 0l-2-2c-.2929-.2929-.2929-.7677 0-1.0606z" fill="#1a3264" fill-opacity="1" data-original-color="#000000ff" stroke="none" stroke-opacity="1"/><path d="m16.9697 18.5303c.2929.2929.7677.2929 1.0606 0l2-2c.2929-.2929.2929-.7677 0-1.0606s-.7677-.2929-1.0606 0l-2 2c-.2929.2929-.2929.7677 0 1.0606z" fill="#1a3264" fill-opacity="1" data-original-color="#000000ff" stroke="none" stroke-opacity="1"/></g></g></g></svg>