<svg version="1.1" id="svg339" xml:space="preserve" width="300" height="300" viewBox="0 0 682.66669 682.66669" xmlns="http://www.w3.org/2000/svg" xmlns:svg="http://www.w3.org/2000/svg" xmlns:xlink="http://www.w3.org/1999/xlink" xmlns:svgjs="http://svgjs.dev/svgjs"><g width="100%" height="100%" transform="matrix(1,0,0,1,0,0)"><defs id="defs343"><clipPath clipPathUnits="userSpaceOnUse" id="clipPath353"><path d="M 0,512 H 512 V 0 H 0 Z" id="path351" fill="#1a3264" fill-opacity="1" data-original-color="#000000ff" stroke="none" stroke-opacity="1"/></clipPath></defs><g id="g345" transform="matrix(1.3333333,0,0,-1.3333333,0,682.66667)"><g id="g347"><g id="g349" clip-path="url(#clipPath353)"><g id="g355" transform="translate(474.5,11.3325)"><path d="m 0,0 h -437 c -16.568,0 -30,13.432 -30,30 V 331.5 H 30 V 30 C 30,13.432 16.568,0 0,0 Z" style="stroke-linecap: round; stroke-linejoin: round; stroke-miterlimit: 10; stroke-dasharray: 545, 35, 800, 0; stroke-dashoffset: 0;" id="path357" fill="none" fill-opacity="1" stroke="#1a3264" stroke-opacity="1" data-original-stroke-color="#000000ff" stroke-width="15" data-original-stroke-width="15"/></g><g id="g359" transform="translate(200.4561,395.6675)"><path d="m 0,0 v 0 c -11.874,0 -21.5,9.626 -21.5,21.5 v 78.851 c 0,2.567 2.081,4.649 4.648,4.649 h 33.704 c 2.567,0 4.648,-2.082 4.648,-4.649 V 21.5 C 21.5,9.626 11.874,0 0,0 Z" style="stroke-linecap: round; stroke-linejoin: round; stroke-miterlimit: 10; stroke-dasharray: none;" id="path361" fill="none" fill-opacity="1" stroke="#1a3264" stroke-opacity="1" data-original-stroke-color="#000000ff" stroke-width="15" data-original-stroke-width="15"/></g><g id="g363" transform="translate(89.3682,395.6675)"><path d="m 0,0 h -0.001 c -11.874,0 -21.5,9.626 -21.5,21.5 v 78.851 c 0,2.567 2.082,4.649 4.649,4.649 h 33.703 c 2.567,0 4.649,-2.082 4.649,-4.649 L 21.5,21.5 C 21.5,9.626 11.874,0 0,0 Z" style="stroke-linecap: round; stroke-linejoin: round; stroke-miterlimit: 10; stroke-dasharray: none;" id="path365" fill="none" fill-opacity="1" stroke="#1a3264" stroke-opacity="1" data-original-stroke-color="#000000ff" stroke-width="15" data-original-stroke-width="15"/></g><g id="g367" transform="translate(311.5439,395.6675)"><path d="m 0,0 v 0 c -11.874,0 -21.5,9.626 -21.5,21.5 v 78.851 c 0,2.567 2.081,4.649 4.648,4.649 h 33.704 c 2.567,0 4.648,-2.082 4.648,-4.649 V 21.5 C 21.5,9.626 11.874,0 0,0 Z" style="stroke-linecap: round; stroke-linejoin: round; stroke-miterlimit: 10; stroke-dasharray: none;" id="path369" fill="none" fill-opacity="1" stroke="#1a3264" stroke-opacity="1" data-original-stroke-color="#000000ff" stroke-width="15" data-original-stroke-width="15"/></g><g id="g371" transform="translate(422.6328,395.6675)"><path d="m 0,0 h -0.001 c -11.874,0 -21.5,9.626 -21.5,21.5 v 78.851 c 0,2.567 2.082,4.649 4.649,4.649 h 33.703 c 2.567,0 4.649,-2.082 4.649,-4.649 L 21.5,21.5 C 21.5,9.626 11.874,0 0,0 Z" style="stroke-linecap: round; stroke-linejoin: round; stroke-miterlimit: 10; stroke-dasharray: none;" id="path373" fill="none" fill-opacity="1" stroke="#1a3264" stroke-opacity="1" data-original-stroke-color="#000000ff" stroke-width="15" data-original-stroke-width="15"/></g><g id="g375" transform="translate(223.7539,242.1157)"><path d="m 0,0 h -41.647 c -3.867,0 -7,3.134 -7,7 v 41.647 c 0,3.867 3.133,7 7,7 H 0 c 3.866,0 7,-3.133 7,-7 V 7 C 7,3.134 3.866,0 0,0 Z" style="stroke-linecap: round; stroke-linejoin: round; stroke-miterlimit: 10; stroke-dasharray: none;" id="path377" fill="none" fill-opacity="1" stroke="#1a3264" stroke-opacity="1" data-original-stroke-color="#000000ff" stroke-width="15" data-original-stroke-width="15"/></g><g id="g379" transform="translate(329.8936,242.1157)"><path d="m 0,0 h -41.647 c -3.867,0 -7,3.134 -7,7 v 41.647 c 0,3.867 3.133,7 7,7 H 0 c 3.866,0 7,-3.133 7,-7 V 7 C 7,3.134 3.866,0 0,0 Z" style="stroke-linecap: round; stroke-linejoin: round; stroke-miterlimit: 10; stroke-dasharray: none;" id="path381" fill="none" fill-opacity="1" stroke="#1a3264" stroke-opacity="1" data-original-stroke-color="#000000ff" stroke-width="15" data-original-stroke-width="15"/></g><g id="g383" transform="translate(436.0322,242.1157)"><path d="m 0,0 h -41.647 c -3.867,0 -7,3.134 -7,7 v 41.647 c 0,3.867 3.133,7 7,7 H 0 c 3.866,0 7,-3.133 7,-7 V 7 C 7,3.134 3.866,0 0,0 Z" style="stroke-linecap: round; stroke-linejoin: round; stroke-miterlimit: 10; stroke-dasharray: none;" id="path385" fill="none" fill-opacity="1" stroke="#1a3264" stroke-opacity="1" data-original-stroke-color="#000000ff" stroke-width="15" data-original-stroke-width="15"/></g><g id="g387" transform="translate(117.6152,56.4019)"><path d="m 0,0 h -41.647 c -3.867,0 -7,3.134 -7,7 v 41.648 c 0,3.866 3.133,7 7,7 H 0 c 3.866,0 7,-3.134 7,-7 V 7 C 7,3.134 3.866,0 0,0 Z" style="stroke-linecap: round; stroke-linejoin: round; stroke-miterlimit: 10; stroke-dasharray: none;" id="path389" fill="none" fill-opacity="1" stroke="#1a3264" stroke-opacity="1" data-original-stroke-color="#000000ff" stroke-width="15" data-original-stroke-width="15"/></g><g id="g391" transform="translate(223.7539,56.4019)"><path d="m 0,0 h -41.647 c -3.867,0 -7,3.134 -7,7 v 41.648 c 0,3.866 3.133,7 7,7 H 0 c 3.866,0 7,-3.134 7,-7 V 7 C 7,3.134 3.866,0 0,0 Z" style="stroke-linecap: round; stroke-linejoin: round; stroke-miterlimit: 10; stroke-dasharray: none;" id="path393" fill="none" fill-opacity="1" stroke="#1a3264" stroke-opacity="1" data-original-stroke-color="#000000ff" stroke-width="15" data-original-stroke-width="15"/></g><g id="g395" transform="translate(329.8936,56.4019)"><path d="m 0,0 h -41.647 c -3.867,0 -7,3.134 -7,7 v 41.648 c 0,3.866 3.133,7 7,7 H 0 c 3.866,0 7,-3.134 7,-7 V 7 C 7,3.134 3.866,0 0,0 Z" style="stroke-linecap: round; stroke-linejoin: round; stroke-miterlimit: 10; stroke-dasharray: none;" id="path397" fill="none" fill-opacity="1" stroke="#1a3264" stroke-opacity="1" data-original-stroke-color="#000000ff" stroke-width="15" data-original-stroke-width="15"/></g><g id="g399" transform="translate(436.0322,56.4019)"><path d="m 0,0 h -41.647 c -3.867,0 -7,3.134 -7,7 v 41.648 c 0,3.866 3.133,7 7,7 H 0 c 3.866,0 7,-3.134 7,-7 V 7 C 7,3.134 3.866,0 0,0 Z" style="stroke-linecap: round; stroke-linejoin: round; stroke-miterlimit: 10; stroke-dasharray: none;" id="path401" fill="none" fill-opacity="1" stroke="#1a3264" stroke-opacity="1" data-original-stroke-color="#000000ff" stroke-width="15" data-original-stroke-width="15"/></g><g id="g403" transform="translate(117.6152,149.2588)"><path d="m 0,0 h -41.647 c -3.867,0 -7,3.134 -7,7 v 41.648 c 0,3.866 3.133,7 7,7 H 0 c 3.866,0 7,-3.134 7,-7 V 7 C 7,3.134 3.866,0 0,0 Z" style="stroke-linecap: round; stroke-linejoin: round; stroke-miterlimit: 10; stroke-dasharray: none;" id="path405" fill="none" fill-opacity="1" stroke="#1a3264" stroke-opacity="1" data-original-stroke-color="#000000ff" stroke-width="15" data-original-stroke-width="15"/></g><g id="g407" transform="translate(223.7539,149.2588)"><path d="m 0,0 h -41.647 c -3.867,0 -7,3.134 -7,7 v 41.648 c 0,3.866 3.133,7 7,7 H 0 c 3.866,0 7,-3.134 7,-7 V 7 C 7,3.134 3.866,0 0,0 Z" style="stroke-linecap: round; stroke-linejoin: round; stroke-miterlimit: 10; stroke-dasharray: none;" id="path409" fill="none" fill-opacity="1" stroke="#1a3264" stroke-opacity="1" data-original-stroke-color="#000000ff" stroke-width="15" data-original-stroke-width="15"/></g><g id="g411" transform="translate(329.8936,149.2588)"><path d="m 0,0 h -41.647 c -3.867,0 -7,3.134 -7,7 v 41.648 c 0,3.866 3.133,7 7,7 H 0 c 3.866,0 7,-3.134 7,-7 V 7 C 7,3.134 3.866,0 0,0 Z" style="stroke-linecap: round; stroke-linejoin: round; stroke-miterlimit: 10; stroke-dasharray: none;" id="path413" fill="none" fill-opacity="1" stroke="#1a3264" stroke-opacity="1" data-original-stroke-color="#000000ff" stroke-width="15" data-original-stroke-width="15"/></g><g id="g415" transform="translate(436.0322,149.2588)"><path d="m 0,0 h -41.647 c -3.867,0 -7,3.134 -7,7 v 41.648 c 0,3.866 3.133,7 7,7 H 0 c 3.866,0 7,-3.134 7,-7 V 7 C 7,3.134 3.866,0 0,0 Z" style="stroke-linecap: round; stroke-linejoin: round; stroke-miterlimit: 10; stroke-dasharray: none;" id="path417" fill="none" fill-opacity="1" stroke="#1a3264" stroke-opacity="1" data-original-stroke-color="#000000ff" stroke-width="15" data-original-stroke-width="15"/></g><g id="g419" transform="translate(474.5,448.8325)"><path d="m 0,0 h -30.367 v -31.665 c 0,-11.874 -9.626,-21.5 -21.5,-21.5 -11.875,0 -21.5,9.626 -21.5,21.5 V 0 h -68.089 v -31.665 c 0,-11.874 -9.626,-21.5 -21.5,-21.5 -11.874,0 -21.5,9.626 -21.5,21.5 V 0 h -68.088 v -31.665 c 0,-11.874 -9.626,-21.5 -21.5,-21.5 -11.874,0 -21.5,9.626 -21.5,21.5 V 0 h -68.088 v -31.665 c 0,-11.874 -9.626,-21.5 -21.501,-21.5 -11.874,0 -21.5,9.626 -21.5,21.5 l 0,31.665 H -437 c -16.568,0 -30,-13.431 -30,-30 v -76 H 30 v 76 C 30,-13.431 16.568,0 0,0 Z" style="stroke-linecap: round; stroke-linejoin: round; stroke-miterlimit: 10; stroke-dasharray: 301, 35, 796, 0; stroke-dashoffset: 0;" id="path421" fill="none" fill-opacity="1" stroke="#1a3264" stroke-opacity="1" data-original-stroke-color="#000000ff" stroke-width="15" data-original-stroke-width="15"/></g></g></g></g></g></svg>